:SAMPLES-PER-SECOND 30
:FULLY-SPECIFIED
:DEGREES
114
root  21.6266 36.5452 3.06886 -22.3661 -87.1478 13.8957
RightUpLeg  -24.6587 -4.75718 -1.98721
RightLeg  32.0084 1.81406 0.978573
RightFoot  0.263565 0.223748 -2.18072
RightToes  -3.31784e-009 0 -3.6325e-017
Spine  23.3759 -1.55172 7.74435
Spine1  2.80997 0.764038 -2.68728
HEad  -17.102 -4.70218 -4.80505
LeftShoulder1  -0.272984 4.30158 -28.0551
LeftArm  9.05437 20.2306 -33.7963
LeftForeArm  29.1447 -48.8181 -10.6237
LeftHand  -0.0326107 8.38998 0.475435
RightShoulder  -0.884132 -6.04557 28.213
RightArm  18.6521 -15.6926 41.9829
RightForeArm  9.65724 36.4612 7.71348
RightHand  -0.201893 5.00369 -2.55382
LeftUpLeg  -11.7718 12.014 1.79633
LeftLeg  62.5467 -1.63639 -2.82929
LeftFoot  -5.87171 0.416259 -8.64223
LeftToes  1.28511e-009 -3.60458e-011 6.16399e-011
115
root  21.292 36.1519 2.94697 -8.43869 -87.2019 0.368073
RightUpLeg  -26.7053 -6.86638 -0.836488
RightLeg  35.9619 3.1396 2.17367
RightFoot  -1.48955 0.290766 -3.49027
RightToes  -3.31784e-009 0 -3.6325e-017
Spine  27.7233 -1.45976 8.46978
Spine1  1.71136 1.00179 -2.00019
HEad  -20.8599 -6.33436 -3.91314
LeftShoulder1  -0.214177 4.12451 -28.3317
LeftArm  8.11052 22.5299 -32.427
LeftForeArm  30.1104 -48.8613 -10.5718
LeftHand  -0.0331337 8.32711 0.435551
RightShoulder  -0.899739 -6.09312 28.1551
RightArm  17.7961 -15.3257 41.1842
RightForeArm  9.62655 37.3203 7.96744
RightHand  -0.232601 5.53555 -2.79023
LeftUpLeg  -19.5736 13.3115 2.67695
LeftLeg  68.4032 -1.38863 -3.10541
LeftFoot  -6.17301 0.256773 -4.798
LeftToes  1.28511e-009 -3.60458e-011 6.16399e-011
116
root  21.0266 35.7153 2.81834 -7.48615 -87.3349 0.38089
RightUpLeg  -29.5669 -8.18249 -0.299555
RightLeg  39.9464 3.88855 3.18805
RightFoot  -3.19655 0.296066 -4.43766
RightToes  -3.31784e-009 0 -3.6325e-017
Spine  32.3704 -1.42827 8.44687
Spine1  0.398954 1.0824 -1.8164
HEad  -25.0198 -7.20151 -2.98391
LeftShoulder1  -0.209466 4.11087 -28.3103
LeftArm  7.00156 23.7565 -31.9739
LeftForeArm  29.1125 -47.2263 -9.99669
LeftHand  -0.0503686 8.03032 -0.250012
RightShoulder  -0.940468 -6.14864 28.9798
RightArm  17.2509 -14.5441 40.0902
RightForeArm  9.91329 37.4663 7.99372
RightHand  -0.21649 5.69777 -2.59778
LeftUpLeg  -27.1565 13.8578 2.38571
LeftLeg  69.0378 -1.49821 -3.52193
LeftFoot  -8.99536 0.141973 -4.23807
LeftToes  1.28511e-009 -3.60458e-011 6.16399e-011
117
root  20.7424 35.2782 2.70023 -7.71663 -87.8938 2.48468
RightUpLeg  -33.2507 -8.35825 0.295219
RightLeg  43.5795 4.0541 3.80777
RightFoot  -4.8504 0.236671 -4.75867
RightToes  -3.31784e-009 0 -3.6325e-017
Spine  35.1651 -0.95103 8.09331
Spine1  1.16623 1.37834 -1.22743
HEad  -29.7251 -8.06868 -3.22876
LeftShoulder1  -0.0658338 3.69564 -28.175
LeftArm  5.03665 23.3933 -33.4329
LeftForeArm  27.6079 -44.1105 -8.95967
LeftHand  -0.0693568 9.04161 -0.60453
RightShoulder  -0.765817 -5.68948 28.4104
RightArm  15.3628 -13.82 40.8466
RightForeArm  9.20898 36.765 7.83093
RightHand  -0.257846 4.79066 -3.21817
LeftUpLeg  -34.051 13.1802 1.97853
LeftLeg  65.1666 -2.64968 -5.51708
LeftFoot  -11.9445 0.0481103 -4.05128
LeftToes  1.28511e-009 -3.60458e-011 6.16399e-011
118
root  20.5115 34.7207 2.67268 -6.06424 -88.4143 3.15114
RightUpLeg  -37.7503 -8.5268 0.93551
RightLeg  47.5537 4.00773 4.34116
RightFoot  -6.5292 0.185322 -5.44669
RightToes  -3.31784e-009 0 -3.6325e-017
Spine  38.5039 -0.791002 8.12369
Spine1  0.668532 1.5465 -0.997313
HEad  -33.495 -8.68116 -3.07163
LeftShoulder1  0.0405953 3.38742 -28.4923
LeftArm  4.71789 22.2054 -34.4193
LeftForeArm  26.3831 -40.7387 -7.92917
LeftHand  -0.0771573 9.66581 -0.634563
RightShoulder  -0.690567 -5.48222 28.226
RightArm  14.8402 -13.1953 40.7334
RightForeArm  7.73643 36.1944 7.75532
RightHand  -0.362099 5.93073 -4.04509
LeftUpLeg  -39.9095 11.3069 1.90792
LeftLeg  59.3909 -4.14345 -7.04186
LeftFoot  -12.6788 0.0150326 -5.51309
LeftToes  1.28511e-009 -3.60458e-011 6.16399e-011
119
root  20.3094 34.0246 2.70398 -16.6194 -89.2768 15.4706
RightUpLeg  -42.0412 -8.57889 1.51757
RightLeg  52.0811 3.98864 5.10038
RightFoot  -8.68917 0.0742259 -5.70703
RightToes  -3.31784e-009 0 -3.6325e-017
Spine  42.2485 -0.602313 8.17468
Spine1  0.537291 1.87894 -0.647661
HEad  -36.5223 -9.73916 -3.02457
LeftShoulder1  0.288335 2.68004 -28.8877
LeftArm  4.72633 20.6991 -35.8898
LeftForeArm  25.7092 -38.1872 -7.21411
LeftHand  -0.0523863 9.4293 0.0182807
RightShoulder  -0.60488 -5.256 27.7768
RightArm  13.9818 -12.7726 40.7369
RightForeArm  7.8797 36.0548 7.7066
RightHand  -0.422776 7.01165 -4.3126
LeftUpLeg  -43.913 9.90946 2.27618
LeftLeg  55.1035 -4.16973 -5.93712
LeftFoot  -11.7727 0.0284606 -6.25698
LeftToes  1.28511e-009 -3.60458e-011 6.16399e-011
120
root  20.0554 33.1977 2.7935 140.19 -89.9786 -138.896
RightUpLeg  -47.295 -8.79945 2.05142
RightLeg  57.0624 3.9297 6.06427
RightFoot  -11.0366 -0.0593524 -5.9139
RightToes  -3.31784e-009 0 -3.6325e-017
Spine  44.1471 -0.685215 8.11637
Spine1  1.97708 2.02228 -0.769509
HEad  -40.1975 -9.11568 -3.47778
LeftShoulder1  0.444008 2.25535 -29.4898
LeftArm  5.86387 18.1429 -36.9747
LeftForeArm  23.4374 -36.0908 -6.76699
LeftHand  -0.0201013 8.74582 0.894636
RightShoulder  -0.462762 -4.84731 27.5641
RightArm  13.1612 -11.8792 41.0032
RightForeArm  8.12996 35.9327 7.65714
RightHand  -0.445252 6.51007 -4.69937
LeftUpLeg  -48.5778 8.42039 2.11293
LeftLeg  55.4208 -2.78548 -3.78312
LeftFoot  -9.64293 0.0912434 -0.959838
LeftToes  1.28511e-009 -3.60458e-011 6.16399e-011
121
root  19.7546 32.3124 2.89145 -176.032 -89.1479 -179.722
RightUpLeg  -53.0852 -8.63137 2.85649
RightLeg  61.9519 3.60023 6.7723
RightFoot  -12.87 -0.173707 -6.49317
RightToes  -3.31784e-009 0 -3.6325e-017
Spine  45.7496 -0.644959 7.88722
Spine1  2.51628 2.15825 -0.504562
HEad  -41.8361 -8.82092 -4.36283
LeftShoulder1  0.421103 2.37813 -31.3124
LeftArm  8.66198 14.6159 -36.4402
LeftForeArm  20.7923 -34.657 -6.54171
LeftHand  -0.0387407 9.04065 0.297383
RightShoulder  -0.39309 -4.63654 27.6859
RightArm  13.1618 -10.5561 40.8851
RightForeArm  7.0608 34.787 7.39988
RightHand  -0.44153 8.21831 -4.12491
LeftUpLeg  -54.1239 7.77798 1.76299
LeftLeg  60.3926 -1.01076 -1.36718
LeftFoot  -11.3222 0.0598983 3.26592
LeftToes  1.28511e-009 -3.60458e-011 6.16399e-011
122
root  19.43 31.4 3.01282 175.463 -88.832 -168.667
RightUpLeg  -58.4165 -8.66279 3.35483
RightLeg  66.9187 3.08846 7.26301
RightFoot  -14.7294 -0.301759 -6.85078
RightToes  -3.31784e-009 0 -3.6325e-017
Spine  48.235 -0.866693 7.88053
Spine1  1.50597 1.88457 0.103711
HEad  -43.8365 -7.93425 -5.32057
LeftShoulder1  0.488655 2.2385 -32.5224
LeftArm  10.0709 11.5517 -36.5889
LeftForeArm  19.4358 -33.4649 -6.31154
LeftHand  -0.0493552 8.48331 -0.0997175
RightShoulder  -0.338421 -4.47769 27.5946
RightArm  13.7029 -9.27877 41.1853
RightForeArm  7.19315 33.4876 7.03706
RightHand  -0.42951 8.19778 -4.05027
LeftUpLeg  -59.4589 7.04252 1.96979
LeftLeg  65.4444 -0.535998 -0.606055
LeftFoot  -12.8668 0.102449 1.83678
LeftToes  1.28511e-009 -3.60458e-011 6.16399e-011
123
root  19.119 30.6078 3.09827 -167.919 -88.618 176.933
RightUpLeg  -62.8867 -8.39668 3.20281
RightLeg  71.0883 2.52278 7.34499
RightFoot  -16.6477 -0.427787 -6.79765
RightToes  -3.31784e-009 0 -3.6325e-017
Spine  50.7207 -0.87271 7.66023
Spine1  0.773462 1.90675 0.399231
HEad  -46.0175 -7.88851 -5.59873
LeftShoulder1  0.705137 1.68248 -32.6385
LeftArm  11.7037 7.86942 -37.8965
LeftForeArm  18.0951 -32.0011 -6.01895
LeftHand  -0.0363173 8.68456 0.378541
RightShoulder  -0.240813 -4.19521 27.3084
RightArm  13.3817 -8.65019 41.898
RightForeArm  6.05683 32.5522 6.85618
RightHand  -0.537495 9.18273 -4.62187
LeftUpLeg  -63.866 6.91802 1.49129
LeftLeg  69.5556 -0.403586 -0.362854
LeftFoot  -14.3695 0.130773 1.66037
LeftToes  1.28511e-009 -3.60458e-011 6.16399e-011
124
root  18.7911 29.9488 3.1509 -165.142 -88.3119 176.113
RightUpLeg  -66.4755 -7.39265 2.95315
RightLeg  74.4267 1.93018 6.8171
RightFoot  -18.4043 -0.531914 -6.60248
RightToes  -3.31784e-009 0 -3.6325e-017
Spine  52.9474 -0.933058 7.6208
Spine1  0.430207 2.11552 0.410645
HEad  -48.3794 -7.97589 -5.42719
LeftShoulder1  0.819054 1.39556 -32.7696
LeftArm  13.5032 3.43282 -39.047
LeftForeArm  16.9512 -30.5836 -5.73437
LeftHand  -0.0512168 8.65769 -0.0932496
RightShoulder  -0.149374 -3.92538 27.06
RightArm  14.9084 -7.01041 42.5954
RightForeArm  4.35067 31.4946 6.67834
RightHand  -0.904551 9.92409 -7.25181
LeftUpLeg  -67.5296 6.93336 1.28588
LeftLeg  73.0143 -0.27717 0.00647086
LeftFoot  -15.8453 0.164027 1.75579
LeftToes  1.28511e-009 -3.60458e-011 6.16399e-011
